<svg height="48" viewBox="0 0 48 48" width="48" xmlns="http://www.w3.org/2000/svg"><g fill="none" fill-rule="evenodd"><path d="m0 0h48v48h-48z"/><path d="m38 18c0-7.7319865-6.2680135-14-14-14s-14 6.2680135-14 14" stroke="#00c795" stroke-width="4"/><path d="m36 16h4c3.3137085 0 6 2.6862915 6 6v4c0 3.3137085-2.6862915 6-6 6h-4z" fill="#00c795"/><rect fill="#fff" height="6" rx="3" width="10" x="19" y="38"/><path d="m28 41h1c4.418278 0 8-3.581722 8-8" stroke="#fff" stroke-width="2"/><path d="m8 16h4v16h-4c-3.3137085 0-6-2.6862915-6-6v-4c0-3.3137085 2.6862915-6 6-6z" fill="#00c795"/></g></svg>