<svg height="48" viewBox="0 0 48 48" width="48" xmlns="http://www.w3.org/2000/svg"><g fill="none" fill-rule="evenodd"><path d="m0 0h48v48h-48z"/><path d="m32.1194431 3.74591895.7879172 1.16443073c.7202264 1.06439325 1.8891769 1.73928716 3.1710817 1.83082488l1.4023852.10014094c1.9700169.14067415 3.5371832 1.70784038 3.6778573 3.6778573l.1001409 1.4023852c.0915378 1.2819048.7664317 2.4508553 1.8308249 3.1710817l1.1644307.7879172c1.6357477 1.1068359 2.2093703 3.2476248 1.3461893 5.0240466l-.614468 1.2645716c-.5616784 1.155931-.5616784 2.5057188 0 3.6616498l.614468 1.2645716c.863181 1.7764218.2895584 3.9172107-1.3461893 5.0240466l-1.1644307.7879172c-1.0643932.7202264-1.7392871 1.8891769-1.8308249 3.1710817l-.1001409 1.4023852c-.1406741 1.9700169-1.7078404 3.5371832-3.6778573 3.6778573l-1.4023852.1001409c-1.2819048.0915378-2.4508553.7664317-3.1710817 1.8308249l-.7879172 1.1644307c-1.1068359 1.6357477-3.2476248 2.2093703-5.0240466 1.3461893l-1.2645716-.614468c-1.155931-.5616784-2.5057188-.5616784-3.6616498 0l-1.2645716.614468c-1.7764218.863181-3.9172107.2895584-5.0240466-1.3461893l-.7879172-1.1644307c-.7202264-1.0643932-1.8891769-1.7392871-3.1710817-1.8308249l-1.4023852-.1001409c-1.97001692-.1406741-3.53718315-1.7078404-3.6778573-3.6778573l-.10014094-1.4023852c-.09153772-1.2819048-.76643163-2.4508553-1.83082488-3.1710817l-1.16443073-.7879172c-1.63574764-1.1068359-2.2093703-3.2476248-1.34618921-5.0240466l.614468-1.2645716c.5616784-1.155931.5616784-2.5057188 0-3.6616498l-.614468-1.2645716c-.86318109-1.7764218-.28955843-3.9172107 1.34618921-5.0240466l1.16443073-.7879172c1.06439325-.7202264 1.73928716-1.8891769 1.83082488-3.1710817l.10014094-1.4023852c.14067415-1.97001692 1.70784038-3.53718315 3.6778573-3.6778573l1.4023852-.10014094c1.2819048-.09153772 2.4508553-.76643163 3.1710817-1.83082488l.7879172-1.16443073c1.1068359-1.63574764 3.2476248-2.2093703 5.0240466-1.34618921l1.2645716.614468c1.155931.5616784 2.5057188.5616784 3.6616498 0l1.2645716-.614468c1.7764218-.86318109 3.9172107-.28955843 5.0240466 1.34618921zm-8.1194431 4.25408105c-8.836556 0-16 7.163444-16 16s7.163444 16 16 16 16-7.163444 16-16-7.163444-16-16-16z" fill="#00c795"/><path d="m19.1923882 30.1923882v-4h6v-12h4v16z" fill="#fff" transform="matrix(.70710678 .70710678 -.70710678 .70710678 22.778174 -10.606602)"/></g></svg>