<?xml version="1.0" encoding="UTF-8"?>
<svg width="40px" height="40px" viewBox="0 0 40 40" version="1.1" xmlns="http://www.w3.org/2000/svg" xmlns:xlink="http://www.w3.org/1999/xlink">
    <title>ic-instagram</title>
    <g id="ic-instagram" stroke="none" stroke-width="1" fill="none" fill-rule="evenodd">
        <g>
            <rect id="bounds" x="0" y="0" width="40" height="40" rx="20"></rect>
            <path d="M20.00075,12 C17.8280607,12 17.5553912,12.0095 16.702049,12.0483333 C15.8503734,12.0873333 15.2690341,12.2221667 14.7603621,12.42 C14.2341899,12.6243333 13.787852,12.8976667 13.3431807,13.3425 C12.898176,13.7871667 12.6248398,14.2335 12.4198377,14.7595 C12.2215023,15.2683333 12.0865009,15.8498333 12.0481672,16.7011667 C12.0100001,17.5545 12,17.8273333 12,20 C12,22.1726667 12.0096668,22.4445 12.0483338,23.2978333 C12.0875009,24.1495 12.2223356,24.7308333 12.4200044,25.2395 C12.6245065,25.7656667 12.8978427,26.212 13.3426807,26.6566667 C13.7871853,27.1016667 14.2335233,27.3756667 14.7593621,27.58 C15.2683674,27.7778333 15.8498734,27.9126667 16.7013823,27.9516667 C17.5547245,27.9905 17.8272274,28 19.99975,28 C22.172606,28 22.4444421,27.9905 23.2977844,27.9516667 C24.1494599,27.9126667 24.731466,27.7778333 25.2404713,27.58 C25.7664767,27.3756667 26.212148,27.1016667 26.6566527,26.6566667 C27.1016573,26.212 27.3749935,25.7656667 27.5799956,25.2396667 C27.7766643,24.7308333 27.9116657,24.1493333 27.9516662,23.298 C27.9899999,22.4446667 28,22.1726667 28,20 C28,17.8273333 27.9899999,17.5546667 27.9516662,16.7013333 C27.9116657,15.8496667 27.7766643,15.2683333 27.5799956,14.7596667 C27.3749935,14.2335 27.1016573,13.7871667 26.6566527,13.3425 C26.211648,12.8975 25.7666434,12.6241667 25.2399712,12.42 C24.7299659,12.2221667 24.1482932,12.0873333 23.2966177,12.0483333 C22.4432755,12.0095 22.171606,12 19.99825,12 L20.00075,12 Z M19.2830759,13.4416667 C19.4960781,13.4413333 19.7337472,13.4416667 20.00075,13.4416667 C22.1367723,13.4416667 22.3899416,13.4493333 23.2334503,13.4876667 C24.0134585,13.5233333 24.4367962,13.6536667 24.7187992,13.7631667 C25.0921364,13.9081667 25.3583058,14.0815 25.6381421,14.3615 C25.918145,14.6415 26.0914801,14.9081667 26.236815,15.2815 C26.3463161,15.5631667 26.4768175,15.9865 26.5123178,16.7665 C26.5506516,17.6098333 26.558985,17.8631667 26.558985,19.9981667 C26.558985,22.1331667 26.5506516,22.3865 26.5123178,23.2298333 C26.4766508,24.0098333 26.3463161,24.4331667 26.236815,24.7148333 C26.0918135,25.0881667 25.918145,25.354 25.6381421,25.6338333 C25.3581391,25.9138333 25.092303,26.0871667 24.7187992,26.2321667 C24.4371296,26.3421667 24.0134585,26.4721667 23.2334503,26.5078333 C22.3901082,26.5461667 22.1367723,26.5545 20.00075,26.5545 C17.8645611,26.5545 17.6113918,26.5461667 16.7680497,26.5078333 C15.9880415,26.4718333 15.5647038,26.3415 15.2825342,26.232 C14.909197,26.087 14.6425275,25.9136667 14.3625246,25.6336667 C14.0825217,25.3536667 13.9091866,25.0876667 13.7638517,24.7141667 C13.6543506,24.4325 13.5238492,24.0091667 13.4883488,23.2291667 C13.4500151,22.3858333 13.4423484,22.1325 13.4423484,19.9961667 C13.4423484,17.8598333 13.4500151,17.6078333 13.4883488,16.7645 C13.5240159,15.9845 13.6543506,15.5611667 13.7638517,15.2791667 C13.9088532,14.9058333 14.0825217,14.6391667 14.3625246,14.3591667 C14.6425275,14.0791667 14.909197,13.9058333 15.2825342,13.7605 C15.5645371,13.6505 15.9880415,13.5205 16.7680497,13.4846667 C17.5060574,13.4513333 17.7920603,13.4413333 19.2830759,13.4396667 L19.2830759,13.4416667 Z M24.2711278,14.77 C23.7411223,14.77 23.3111178,15.1995 23.3111178,15.7296667 C23.3111178,16.2596667 23.7411223,16.6896667 24.2711278,16.6896667 C24.8011333,16.6896667 25.2311378,16.2596667 25.2311378,15.7296667 C25.2311378,15.1996667 24.8011333,14.7696667 24.2711278,14.7696667 L24.2711278,14.77 Z M20.00075,15.8916667 C17.731893,15.8916667 15.8923739,17.7311667 15.8923739,20 C15.8923739,22.2688333 17.731893,24.1075 20.00075,24.1075 C22.269607,24.1075 24.1084595,22.2688333 24.1084595,20 C24.1084595,17.7311667 22.2694403,15.8916667 20.0005833,15.8916667 L20.00075,15.8916667 Z M20.00075,17.3333333 C21.473432,17.3333333 22.6674445,18.5271667 22.6674445,20 C22.6674445,21.4726667 21.473432,22.6666667 20.00075,22.6666667 C18.5279013,22.6666667 17.3340556,21.4726667 17.3340556,20 C17.3340556,18.5271667 18.5279013,17.3333333 20.00075,17.3333333 L20.00075,17.3333333 Z" id="Shape" fill="#FFFFFF"></path>
        </g>
    </g>
</svg>