<svg width="40" height="40" viewBox="0 0 40 40" fill="none" xmlns="http://www.w3.org/2000/svg">
<path fill-rule="evenodd" clip-rule="evenodd" d="M16.3758 14.5151C16.3758 15.3573 15.7242 16.0312 14.6779 16.0312H14.6587C13.6513 16.0312 13 15.3573 13 14.5151C13 13.655 13.6711 13 14.6976 13C15.7242 13 16.3564 13.655 16.3758 14.5151ZM16.1782 17.2284V25.9998H13.1774V17.2284H16.1782ZM26.9999 25.9998L27 20.9705C27 18.2764 25.5196 17.0224 23.545 17.0224C21.9518 17.0224 21.2385 17.8738 20.8403 18.471V17.2286H17.8392C17.8787 18.0517 17.8392 26 17.8392 26H20.8403V21.1013C20.8403 20.8392 20.8597 20.5777 20.9391 20.39C21.156 19.8663 21.6497 19.3241 22.4787 19.3241C23.565 19.3241 23.9993 20.1284 23.9993 21.3071V25.9998H26.9999Z" fill="white"/>
</svg>
