<svg height="48" viewBox="0 0 48 48" width="48" xmlns="http://www.w3.org/2000/svg"><g fill="none" fill-rule="evenodd"><path d="m0 0h48v48h-48z"/><path d="m36 24h12l-6 6z" fill="#00c795"/><path d="m33 39.5884573c-3.3359897 1.9260345-7.0322364 2.6628564-10.5978487 2.3419997-.0460494-.0044569-.0923872-.0087123-.1386739-.0131431-.0402608-.0038121-.0802476-.007857-.1202165-.012035-.0749308-.0075557-.1499591-.0157197-.2248476-.0243434-.030223-.0041273-.060197-.0077171-.0901598-.0113818-2.3906583-.2867121-4.6372317-1.0428532-6.6450803-2.1731023-2.1061871-1.1821711-3.9900206-2.7930293-5.51076328-4.7973778-.02458166-.0338706-.04971532-.0670983-.07473607-.1004155-.02702463-.0349328-.05331478-.0703582-.07949219-.1059037-1.31207037-1.7747548-2.30623278-3.7993646-2.89747977-5.9893804-.01414654-.0523563-.02807372-.1046261-.04175567-.1569283-.01179416-.045908-.02356474-.0918866-.03515789-.1379357-.01468638-.0566875-.02881661-.1136963-.04265746-.1707399-.00896888-.0395086-.01831999-.0788451-.02754177-.1182313-.44655991-1.8936934-.57442899-3.8239591-.40404612-5.7173875.22950195-2.6050576 1.01370598-5.0511579 2.23400567-7.2189781 1.18217102-2.1061871 2.79302925-3.9900206 4.79737775-5.51076328.0586381-.04345094.1168184-.08722318.1752712-.13064935.0104926-.00842411.0207653-.01600623.031048-.02357891 1.6993037-1.25626559 3.6276713-2.22112733 5.7109708-2.81989441.017276-.00455004.0342934-.0094367.0513148-.01429711.0753449-.02178109.1511203-.04277712.2270948-.06328825.0523563-.01414654.1046261-.02807372.1569283-.04175567.045908-.01179416.0918866-.02356474.1379357-.03515789.0566875-.01468638.1136963-.02881661.1707399-.04265746.0395086-.00896888.0788451-.01831999.1182313-.02754177 1.8590242-.43839759 3.7532902-.56964018 5.6133525-.41310452l.103696.0094358c.0463884.0040795.0927262.00833496.1390129.01276572.0402608.00381207.0802476.00785704.1202165.012035.0749308.00755567.1499591.0157197.2248476.02434335.030223.00412738.060197.0077172.0901598.01138185 2.3906583.28671212 4.6372317 1.04285315 6.6450803 2.17310235 2.1061871 1.18217102 3.9900206 2.79302925 5.5107633 4.79737775.0245816.0338706.0497153.0670983.074736.1004155.0270247.0349328.0533148.0703582.0794922.1059037 2.210718 2.9897764 3.5181817 6.6885782 3.5181817 10.6927544" stroke="#00c795" stroke-linecap="round" stroke-width="4"/><path d="m27.6271252 17c1.0305255 0 1.6228748.6939049 1.6228748 1.9691896v4.0308104h.75c.5522847 0 1 .4477153 1 1s-.4477153 1-1 1h-.75v4.1620898c0 1.1282123-.5025068 1.7682963-1.4247274 1.8325483l-.1575755.0053619c-.6572643 0-1.1197837-.3188212-1.6066461-1.0877428l-3.132051-4.9122572h-.934l.0007496 4.0308104c0 1.2115205-.5419185 1.8983457-1.4727 1.9639994l-.1501748.0051902c-1.0305255 0-1.6228748-.6939049-1.6228748-1.9691896v-4.0308104h-.75c-.5522847 0-1-.4477153-1-1s.4477153-1 1-1h.75v-4.1620898c0-1.1370959.5097895-1.7692314 1.4603744-1.8326222l.1625004-.005288c.6248068 0 1.1035549.3281983 1.5985317 1.0877428l3.1635935 4.9122572h.869l.0002504-4.0308104c0-1.2115205.5419185-1.8983457 1.4727-1.9639994z" fill="#fff" fill-rule="nonzero"/></g></svg>