<svg height="48" viewBox="0 0 48 48" width="48" xmlns="http://www.w3.org/2000/svg"><g fill="none" fill-rule="evenodd"><path d="m0 0h48v48h-48z"/><g fill-rule="nonzero"><path d="m35.8366667 34.0666667 2.3066666 2.3066666c.4883334.4883334.4883334 1.28 0 1.7683334-.245.245-.565.3666666-.885.3666666s-.64-.1216666-.8833333-.3666666l-2.3066667-2.3066667c-.4883333-.4883333-.4883333-1.28 0-1.7683333.4883334-.4883334 1.28-.4883334 1.7683334 0zm-21.9033334 0c.4883334.4883333.4883334 1.28 0 1.7683333l-2.3066666 2.3066667c-.245.245-.565.3666666-.885.3666666s-.64-.1216666-.88333337-.3666666c-.48833333-.4883334-.48833333-1.28 0-1.7683334l2.30666667-2.3066666c.4883333-.4883334 1.28-.4883334 1.7683333 0zm28.8166667-11.3166667c.69 0 1.25.56 1.25 1.25s-.56 1.25-1.25 1.25h-3.2616667c-.69 0-1.25-.56-1.25-1.25s.56-1.25 1.25-1.25zm-34.23833333 0c.69 0 1.25.56 1.25 1.25s-.56 1.25-1.25 1.25h-3.26166667c-.69 0-1.25-.56-1.25-1.25s.56-1.25 1.25-1.25zm29.63166663-12.89333333c.4883334.48833333.4883334 1.28000003 0 1.76833333l-2.3066666 2.3066667c-.245.2433333-.565.3666666-.885.3666666s-.64-.1216666-.8833334-.3666666c-.4883333-.4883334-.4883333-1.28 0-1.7683334l2.3066667-2.30666663c.4883333-.48833334 1.28-.48833334 1.7683333 0zm-26.5166666 0 2.3066666 2.30666663c.4883334.4883334.4883334 1.28 0 1.7683334-.2466666.2433333-.565.3666666-.885.3666666s-.64-.1216666-.8833333-.3666666l-2.30666667-2.3066667c-.48833333-.4883333-.48833333-1.28 0-1.76833333.48833337-.48833334 1.27999997-.48833334 1.76833337 0zm12.3733333-5.85666667c.69 0 1.25.56 1.25 1.25v3.26166667c0 .69-.56 1.25-1.25 1.25s-1.25-.56-1.25-1.25v-3.26166667c0-.69.56-1.25 1.25-1.25z" fill="#fff"/><path d="m29 39v2.0833333c0 1.6-1.3166667 2.9166667-2.9166667 2.9166667h-4.1666666c-1.4 0-2.9166667-1.0666667-2.9166667-3.4v-1.6zm-7.5-26.4c3.5166667-.75 7.1166667.1166667 9.85 2.3333333 2.75 2.2333334 4.3166667 5.5333334 4.3166667 9.0666667 0 3.6-1.6333334 6.9333333-4.45 9.1666667-1.15.9-1.9 2.0666666-2.1333334 3.3333333v.0166667c-.0333333-.0166667-.05-.0166667-.0833333-.0166667l-10.0376543.0006173c-.0271605.0012346-.0567901.0049383-.0790124.0160494v-.0166667c-.2333333-1.3166667-.9166666-2.45-1.9-3.1833333-3.6333333-2.75-5.3333333-7.25-4.4-11.7833334.9166667-4.4166666 4.5-8.0166666 8.9166667-8.9333333zm2.9166667 3.9c-.6833334 0-1.25.5666667-1.25 1.25s.5666666 1.25 1.25 1.25c2.5333333 0 4.5833333 2.05 4.5833333 4.5833333 0 .6833334.5666667 1.25 1.25 1.25s1.25-.5666666 1.25-1.25c0-3.9-3.1833333-7.0833333-7.0833333-7.0833333z" fill="#00c795"/></g></g></svg>