<svg id="Layer_2" data-name="Layer 2" xmlns="http://www.w3.org/2000/svg" viewBox="0 0 504 504"><defs><style>.cls-1{fill:#2a4b9b;}.cls-2{fill:none;stroke:#1e1e1c;stroke-miterlimit:10;stroke-width:2px;}.cls-3{fill:#2b4c9a;}</style></defs><path class="cls-1" d="M231.69,258.2a37,37,0,0,1-11.2-1.69,25.19,25.19,0,0,1-8.54-4.32l3.21-7.23a26.11,26.11,0,0,0,7.44,3.94,27,27,0,0,0,9.09,1.57,19.29,19.29,0,0,0,6.36-.86,7.62,7.62,0,0,0,3.58-2.32,5.29,5.29,0,0,0,1.14-3.33,4.61,4.61,0,0,0-1.64-3.68,12.23,12.23,0,0,0-4.26-2.22q-2.61-.83-5.79-1.5c-2.12-.45-4.25-1-6.37-1.68a28.77,28.77,0,0,1-5.83-2.54,12.12,12.12,0,0,1-4.25-4.11,12.26,12.26,0,0,1-1.61-6.58,13.61,13.61,0,0,1,2.18-7.48,15,15,0,0,1,6.65-5.43,27.39,27.39,0,0,1,11.34-2,35.81,35.81,0,0,1,8.94,1.14,26.06,26.06,0,0,1,7.72,3.29l-2.93,7.23a27.16,27.16,0,0,0-6.94-3,26.45,26.45,0,0,0-6.86-1,17.9,17.9,0,0,0-6.23.93,7.57,7.57,0,0,0-3.54,2.47,5.68,5.68,0,0,0-1.1,3.4,4.62,4.62,0,0,0,1.6,3.68,11.35,11.35,0,0,0,4.22,2.18c1.74.53,3.69,1,5.83,1.51s4.27,1,6.37,1.68a27.49,27.49,0,0,1,5.79,2.5,12.25,12.25,0,0,1,4.26,4.08,11.91,11.91,0,0,1,1.61,6.47,13.45,13.45,0,0,1-2.18,7.4,15,15,0,0,1-6.69,5.44A27.67,27.67,0,0,1,231.69,258.2Z"/><path class="cls-1" d="M263.73,257.19l-14-37.62h8.44l12.09,33.19h-4.08l12.59-33.19h7.51l12.3,33.19h-4l12.38-33.19h7.94l-14.09,37.62h-8.59l-11.08-29.37h2.57l-11.37,29.37Z"/><path class="cls-1" d="M319.33,213a5.62,5.62,0,0,1-4.11-1.57,5.17,5.17,0,0,1-1.61-3.86,5,5,0,0,1,1.61-3.72,5.63,5.63,0,0,1,4.11-1.58,5.85,5.85,0,0,1,4.11,1.47,4.87,4.87,0,0,1,1.61,3.76,5.39,5.39,0,0,1-1.57,3.89A5.53,5.53,0,0,1,319.33,213Zm-4.44,44.49V219.62h8.87v37.91Z"/><path class="cls-1" d="M324.84,226.77v-7.15H350.3v7.15Zm6.29,30.76V217.26q0-6.07,3.54-9.69T344.79,204a19.56,19.56,0,0,1,4.47.5A9.44,9.44,0,0,1,352.8,206l-2.5,6.65a9.17,9.17,0,0,0-2.22-1.07,8.5,8.5,0,0,0-2.65-.43,5.51,5.51,0,0,0-4.22,1.54,6.47,6.47,0,0,0-1.43,4.54v4.44l.22,3.93v31.9Z"/><path class="cls-1" d="M351.37,226.77v-7.15h25.46v7.15ZM370.82,258c-4.19,0-7.44-1.08-9.72-3.25s-3.44-5.36-3.44-9.55V210.9h8.87v34a5.89,5.89,0,0,0,1.43,4.22,5.29,5.29,0,0,0,4,1.5,7.45,7.45,0,0,0,4.86-1.57l2.58,6.36a11.26,11.26,0,0,1-3.94,1.94A17.39,17.39,0,0,1,370.82,258Z"/><line class="cls-2" x1="226.09" y1="230.25" x2="226.08" y2="230.25"/><line class="cls-2" x1="226.09" y1="230.25" x2="226.08" y2="230.25"/><rect class="cls-3" x="151.07" y="226.67" width="0.34" height="2" transform="translate(-76.88 378.24) rotate(-89.83)"/><polygon class="cls-3" points="150.19 236.33 150.19 236.32 152.19 236.32 150.19 236.33"/><path class="cls-3" d="M150,271.39l.18-39.12,5.21,10,34.12-15.14-1.89,29.1Zm2.15-31,0,6.81L152,268.42l33.7-13.57,1.59-24.54-32.81,14.56Z"/><polygon class="cls-3" points="108.24 205.52 108.23 205.52 108.23 203.52 108.24 205.52"/><polygon class="cls-3" points="148.72 223.75 148.7 223.75 148.7 221.75 148.72 223.75"/><rect class="cls-3" x="126.37" y="231.56" width="0.26" height="2" transform="translate(-84.42 72.57) rotate(-24.27)"/><path class="cls-3" d="M183,208.69,149.2,196.13l-2.63.93-32.22,11.31L107,205.05l.7-1.4,41.38-14.53,40.65,14.75.86,1.49ZM149.22,194,183,206.53l3.71-1.64-37.61-13.64-38.13,13.38,3.51,1.58Z"/><polygon class="cls-3" points="148.42 223.71 148.38 223.7 149.02 221.8 148.42 223.71"/><polygon class="cls-3" points="108.24 205.52 108.23 205.52 108.23 203.52 108.24 205.52"/><polygon class="cls-3" points="140.42 239.87 98.9 221.03 102.48 213.95 104.27 214.85 101.63 220.06 139.56 237.28 147.3 223.22 108.81 205.88 105.46 212.5 103.67 211.6 107.89 203.27 114.8 206.37 150.09 222.29 140.42 239.87"/><polygon class="cls-3" points="149.41 223.46 147.99 222.04 149.42 223.45 149.41 223.46"/><polygon class="cls-3" points="146.92 271.25 109.99 255.76 109.46 249.21 111.45 249.05 111.89 254.39 144.94 268.25 145.05 241.47 143.26 244.8 109.91 230.01 110.18 233.31 108.18 233.48 107.64 226.82 142.38 242.22 147.09 233.45 146.92 271.25"/><rect class="cls-3" x="108.83" y="237.22" width="2" height="8.44" transform="matrix(1, -0.08, 0.08, 1, -19.28, 9.74)"/><path class="cls-3" d="M156.46,239.54l-8.54-16.18-.92-.92,3.86-1.73,38.75-17.11,9,17.25Zm-6.35-16.31L157.36,237l38.47-17.07-7.13-13.69Z"/><polygon class="cls-3" points="148.01 223.46 148 223.45 149.42 222.03 148.01 223.46"/><polygon class="cls-3" points="150.19 236.33 150.19 236.32 152.19 236.32 150.19 236.33"/><rect class="cls-3" x="108.13" y="235.13" width="2" height="23.56" transform="translate(-160.82 247.09) rotate(-66.19)"/><rect class="cls-3" x="97.45" y="217.56" width="2" height="13.61" transform="translate(-146.44 216.63) rotate(-64.5)"/><rect class="cls-3" x="93.61" y="210.38" width="2" height="7.72" transform="translate(-139.48 207.39) rotate(-64.5)"/><rect class="cls-3" x="99.27" y="229.56" width="2" height="13.61" transform="translate(-156.24 225.1) rotate(-64.5)"/><rect class="cls-3" x="107.38" y="223.13" width="2" height="23.56" transform="translate(-150.29 239.24) rotate(-66.19)"/><rect class="cls-3" x="104.16" y="202.04" width="2" height="23.56" transform="translate(-132.91 223.72) rotate(-66.19)"/></svg>