<?xml version="1.0" encoding="UTF-8"?>
<svg width="40px" height="40px" viewBox="0 0 40 40" version="1.1" xmlns="http://www.w3.org/2000/svg" xmlns:xlink="http://www.w3.org/1999/xlink">
    <title>ic-twitter</title>
    <g id="ic-twitter" stroke="none" stroke-width="1" fill="none" fill-rule="evenodd">
        <g>
            <rect id="bounds" x="0" y="0" width="40" height="40" rx="20"></rect>
            <path d="M19.7977989,17.1921879 L19.8281462,17.7112217 L19.3223576,17.6476666 C17.481287,17.4040384 15.8728793,16.5778213 14.50725,15.1902002 L13.8396091,14.5016859 L13.667641,15.0101273 C13.3034732,16.1435277 13.5361359,17.3404833 14.2948188,18.1455154 C14.6994497,18.5904015 14.6084078,18.6539567 13.9104195,18.3891435 C13.667641,18.3044033 13.4552097,18.2408481 13.4349782,18.2726257 C13.3641678,18.3467734 13.6069463,19.3106934 13.799146,19.6920243 C14.0621561,20.2216507 14.598292,20.7406846 15.1850068,21.0478679 L15.6806796,21.291496 L15.0939648,21.3020885 C14.5274816,21.3020885 14.50725,21.312681 14.5679447,21.5351241 C14.7702601,22.2236384 15.5694061,22.9545228 16.4595941,23.2722986 L17.0867719,23.4947417 L16.5405202,23.8337025 C15.7312585,24.3209588 14.7803759,24.5963645 13.8294933,24.6175496 C13.3742836,24.6281421 13,24.6705122 13,24.7022898 C13,24.8082151 14.2341242,25.4013966 14.952344,25.6344322 C17.1070035,26.3229465 19.6662938,26.0263557 21.5882905,24.8505852 C22.9539198,24.0137755 24.319549,22.3507487 24.9568426,20.7406846 C25.3007789,19.8826898 25.6447151,18.3149958 25.6447151,17.5629263 C25.6447151,17.0756701 25.6750625,17.0121149 26.2415457,16.4295259 C26.5753662,16.090565 26.8889551,15.7198266 26.9496498,15.6139013 C27.0508075,15.4126433 27.0406917,15.4126433 26.5247873,15.5927163 C25.6649467,15.9104921 25.5435574,15.868122 25.9684199,15.3914582 C26.2820088,15.0524974 26.6562924,14.4381308 26.6562924,14.2580578 C26.6562924,14.2262802 26.5045558,14.2792429 26.3325877,14.3745756 C26.1505038,14.4805009 25.7458729,14.6393888 25.4423997,14.7347215 L24.896148,14.9147945 L24.4004752,14.5652411 C24.1273493,14.3745756 23.74295,14.1627251 23.5406345,14.0991699 C23.0247302,13.9508745 22.2356999,13.9720596 21.7703744,14.14154 C20.5059029,14.6182037 19.7067569,15.8469369 19.7977989,17.1921879 Z" id="Shape" fill="#FFFFFF"></path>
        </g>
    </g>
</svg>